<?xml version="1.0" encoding="utf-8"?>
<!-- Generator: Adobe Illustrator 28.1.0, SVG Export Plug-In . SVG Version: 6.00 Build 0)  -->
<svg version="1.1" id="Capa_1" xmlns="http://www.w3.org/2000/svg" xmlns:xlink="http://www.w3.org/1999/xlink" x="0px" y="0px"
	 viewBox="0 0 100 100" style="enable-background:new 0 0 100 100;" xml:space="preserve">
<style type="text/css">
	.st0{fill:#FFFFFF;}
</style>
<g>
	<path class="st0" d="M50,0C22.39,0,0,22.39,0,50s22.39,50,50,50s50-22.39,50-50S77.61,0,50,0z M72.3,20.48l0.64-0.64
		c0.71-0.71,1.66-1.11,2.68-1.11c1.01,0,1.96,0.39,2.68,1.11c1.48,1.48,1.48,3.88,0,5.35l-0.64,0.64c-0.71,0.71-1.67,1.11-2.68,1.11
		c-1.01,0-1.96-0.39-2.68-1.11C70.82,24.36,70.82,21.96,72.3,20.48z M46.22,11.92c0-2.09,1.7-3.79,3.79-3.79
		c2.09,0,3.79,1.7,3.79,3.79v0.9c0,2.09-1.7,3.79-3.79,3.79c-2.09,0-3.79-1.7-3.79-3.79V11.92z M14.68,51.92h-0.9
		c-2.09,0-3.79-1.7-3.79-3.78c0-2.09,1.7-3.79,3.79-3.79h0.9c2.09,0,3.79,1.7,3.79,3.79C18.46,50.22,16.76,51.92,14.68,51.92z
		 M21.71,19.85c0.72-0.72,1.67-1.11,2.68-1.11c1.01,0,1.96,0.39,2.68,1.11l0.64,0.64c1.48,1.48,1.48,3.88,0,5.35
		c-0.71,0.71-1.67,1.11-2.68,1.11c-1.01,0-1.96-0.39-2.68-1.11l-0.64-0.64C20.24,23.73,20.24,21.32,21.71,19.85z M27.7,75.79
		l-0.64,0.64c-0.71,0.71-1.67,1.11-2.68,1.11c-1.01,0-1.96-0.39-2.68-1.11c-1.48-1.48-1.48-3.88,0-5.35l0.64-0.64
		c0.72-0.72,1.67-1.11,2.68-1.11c1.01,0,1.96,0.39,2.68,1.11c0.72,0.71,1.11,1.67,1.11,2.68C28.81,74.12,28.42,75.07,27.7,75.79z
		 M62.77,23.25c-1.32,6.34-4.44,20.3-7.69,27.26c-1.36,2.92-4.95,4.08-7.79,2.42c-2.49-1.46-3.34-4.69-2.1-7.29
		c3.36-7.06,12.07-18.11,16.11-23.08C61.85,21.88,62.94,22.4,62.77,23.25z M78.29,76.43c-0.72,0.72-1.67,1.11-2.68,1.11
		c-1.01,0-1.96-0.39-2.68-1.11l-0.64-0.64c-0.72-0.71-1.11-1.67-1.11-2.68c0-1.01,0.39-1.96,1.11-2.68
		c0.71-0.71,1.67-1.11,2.68-1.11c1.01,0,1.96,0.39,2.68,1.11l0.64,0.64C79.76,72.55,79.76,74.95,78.29,76.43z M86.22,51.92h-0.9
		c-2.09,0-3.79-1.7-3.79-3.78c0-2.09,1.7-3.79,3.79-3.79h0.9c2.09,0,3.79,1.7,3.79,3.79C90.01,50.22,88.31,51.92,86.22,51.92z"/>
</g>
</svg>
