<?xml version="1.0" encoding="utf-8"?>
<!-- Generator: Adobe Illustrator 28.1.0, SVG Export Plug-In . SVG Version: 6.00 Build 0)  -->
<svg version="1.1" id="Capa_1" xmlns="http://www.w3.org/2000/svg" xmlns:xlink="http://www.w3.org/1999/xlink" x="0px" y="0px"
	 viewBox="0 0 100 100" style="enable-background:new 0 0 100 100;" xml:space="preserve">
<style type="text/css">
	.st0{fill:#FFFFFF;}
</style>
<path class="st0" d="M93.76,63.62c-4.16-4.16-9.61-6.24-15.07-6.24c-2.52,0-5.04,0.45-7.43,1.34c-0.2,0.07-0.43,0.03-0.58-0.12
	l-1.95-1.95l0,0L41.4,29.32c-0.15-0.15-0.2-0.38-0.12-0.58c2.81-7.57,1.18-16.42-4.9-22.51c-4.54-4.52-10.61-6.59-16.54-6.18
	c-2.82,0.19-4.12,3.59-2.13,5.59l7.33,7.33c1.27,1.27,1.27,3.32,0,4.59l-7.48,7.48c-1.27,1.27-3.32,1.27-4.59,0L5.63,17.7
	c-1.95-1.95-5.37-0.76-5.57,1.99c-0.48,6.35,1.88,12.88,7.08,17.52c5.99,5.34,14.38,6.69,21.59,4.03c0.2-0.07,0.42-0.03,0.57,0.12
	l1.96,1.96l0,0L58.6,70.65c0.15,0.15,0.2,0.38,0.12,0.58c-2.81,7.57-1.19,16.42,4.89,22.5c4.16,4.16,9.62,6.24,15.07,6.24
	s10.9-2.08,15.07-6.24c4.16-4.16,6.24-9.61,6.24-15.07s-2.08-10.9-6.24-15.07L93.76,63.62z M88.64,77.09l-2.14,7.97
	c-0.19,0.71-0.74,1.27-1.45,1.45l-7.97,2.14c-0.71,0.19-1.47-0.02-1.99-0.53l-5.83-5.84c-0.52-0.52-0.72-1.27-0.53-1.98l2.14-7.97
	c0.19-0.71,0.74-1.26,1.45-1.45l7.97-2.13c0.71-0.19,1.47,0.01,1.99,0.53l5.83,5.84c0.52,0.52,0.72,1.27,0.53,1.98V77.09z"/>
<path class="st0" d="M65.39,42.68l11.77-11.77c0.32-0.32,0.84-0.32,1.16,0l0.43,0.43c0.57,0.57,1.45,0.71,2.17,0.34l6.17-3.16
	c0.27-0.14,0.5-0.34,0.68-0.59L99.53,11.1c0.52-0.74,0.43-1.75-0.21-2.38L91.4,0.8c-0.64-0.64-1.64-0.73-2.38-0.21L72.19,12.35
	c-0.25,0.17-0.45,0.41-0.59,0.68l-3.16,6.17c-0.37,0.72-0.23,1.59,0.34,2.17l0.43,0.43c0.32,0.32,0.32,0.84,0,1.16L57.44,34.73
	c0,0,0,0.02,0,0.03l7.92,7.92C65.36,42.68,65.38,42.68,65.39,42.68z"/>
<path class="st0" d="M28.48,51.16c0,0-0.01,0-0.02,0c-1.21,0.04-2.41,0.51-3.34,1.44l-1,1c-1.95,1.95-1.95,5.11,0,7.06l0.05,0.05
	c0.32,0.32,0.32,0.84,0,1.16l-2.54,2.54c-0.32,0.32-0.84,0.32-1.16,0l-0.06-0.06c-1.94-1.94-5.09-1.94-7.03,0l-9.87,9.87
	c-4.39,4.39-4.39,11.5,0,15.88l6.28,6.28c4.39,4.39,11.5,4.39,15.88,0l9.87-9.87c1.94-1.94,1.94-5.09,0-7.03
	c-0.32-0.32-0.32-0.84,0-1.16l2.53-2.53c0.32-0.32,0.85-0.34,1.18-0.01c1.94,1.94,5.09,1.94,7.03,0l1.01-1.01
	c0.93-0.93,1.4-2.13,1.44-3.34c0,0,0-0.01,0-0.02L28.49,51.18L28.48,51.16z"/>
</svg>
