<?xml version="1.0" encoding="utf-8"?>
<!-- Generator: Adobe Illustrator 28.1.0, SVG Export Plug-In . SVG Version: 6.00 Build 0)  -->
<svg version="1.1" id="Capa_1" xmlns="http://www.w3.org/2000/svg" xmlns:xlink="http://www.w3.org/1999/xlink" x="0px" y="0px"
	 viewBox="0 0 100 100" style="enable-background:new 0 0 100 100;" xml:space="preserve">
<style type="text/css">
	.st0{fill:#FFFFFF;}
</style>
<path class="st0" d="M32.36,62.5V11.05C32.36,7.16,29.2,4,25.31,4h-2.38c-3.89,0-7.05,3.16-7.05,7.05V62.5
	c-2.22,0.84-3.8,2.99-3.8,5.5v1.8c0,2.51,1.58,4.65,3.8,5.5v13.66c0,3.89,3.16,7.05,7.05,7.05h2.38c3.89,0,7.05-3.16,7.05-7.05
	V75.29c2.22-0.84,3.8-2.99,3.8-5.5v-1.8C36.16,65.48,34.58,63.34,32.36,62.5z M31.68,69.79c0,0.76-0.64,1.4-1.4,1.4H17.96
	c-0.76,0-1.4-0.64-1.4-1.4v-1.8c0-0.76,0.64-1.4,1.4-1.4h12.32c0.76,0,1.4,0.64,1.4,1.4V69.79z"/>
<path class="st0" d="M57.79,42.26V11.05c0-3.89-3.16-7.05-7.05-7.05h-2.38c-3.89,0-7.05,3.16-7.05,7.05v31.03
	c-2.34,0.78-4.04,2.98-4.04,5.58v1.8c0,2.6,1.7,4.81,4.04,5.58v33.9c0,3.89,3.16,7.05,7.05,7.05h2.38c3.89,0,7.05-3.16,7.05-7.05
	V54.87c2.09-0.9,3.56-2.98,3.56-5.4v-1.8C61.35,45.24,59.88,43.16,57.79,42.26z M56.87,49.47c0,0.76-0.64,1.4-1.4,1.4H43.15
	c-0.76,0-1.4-0.64-1.4-1.4v-1.8c0-0.76,0.64-1.4,1.4-1.4h12.32c0.76,0,1.4,0.64,1.4,1.4V49.47z"/>
<path class="st0" d="M84.13,22.32V11.05c0-3.89-3.16-7.05-7.05-7.05h-2.38c-3.89,0-7.05,3.16-7.05,7.05v11.27
	c-2.22,0.84-3.8,2.99-3.8,5.5v1.8c0,2.51,1.58,4.65,3.8,5.5v53.83c0,3.89,3.16,7.05,7.05,7.05h2.38c3.89,0,7.05-3.16,7.05-7.05
	V35.11c2.22-0.84,3.8-2.99,3.8-5.5v-1.8C87.93,25.31,86.34,23.16,84.13,22.32z M83.45,29.62c0,0.76-0.64,1.4-1.4,1.4H69.72
	c-0.76,0-1.4-0.64-1.4-1.4v-1.8c0-0.76,0.64-1.4,1.4-1.4h12.32c0.76,0,1.4,0.64,1.4,1.4V29.62z"/>
</svg>
