<?xml version="1.0" encoding="utf-8"?>
<!-- Generator: Adobe Illustrator 28.1.0, SVG Export Plug-In . SVG Version: 6.00 Build 0)  -->
<svg version="1.1" id="Capa_1" xmlns="http://www.w3.org/2000/svg" xmlns:xlink="http://www.w3.org/1999/xlink" x="0px" y="0px"
	 viewBox="0 0 100 100" style="enable-background:new 0 0 100 100;" xml:space="preserve">
<style type="text/css">
	.st0{fill:#FFFFFF;}
</style>
<path class="st0" d="M85.06,14.49C75.7,5.11,63.23-0.05,49.98-0.05c-27.35,0-49.6,22.25-49.6,49.6c0,8.74,2.28,17.27,6.61,24.8
	l-7.04,25.7l26.3-6.9c7.24,3.95,15.4,6.03,23.71,6.03h0.02c27.33,0,50.07-22.25,50.07-49.6C100.05,36.33,94.42,23.88,85.06,14.49z
	 M49.98,90.82c-7.42,0-14.68-1.99-21-5.74l-1.5-0.89l-15.6,4.09l4.16-15.22l-0.98-1.56c-4.13-6.57-6.3-14.14-6.3-21.94
	C8.75,26.83,27.25,8.33,50,8.33c11.02,0,21.36,4.29,29.14,12.09s12.56,18.14,12.54,29.16C91.67,72.32,72.7,90.82,49.98,90.82z
	 M72.59,59.94c-1.23-0.63-7.33-3.62-8.47-4.02c-1.14-0.42-1.97-0.63-2.79,0.63c-0.83,1.25-3.2,4.02-3.93,4.87
	c-0.72,0.83-1.45,0.94-2.68,0.31c-7.28-3.64-12.07-6.5-16.87-14.75c-1.27-2.19,1.27-2.03,3.64-6.77c0.4-0.83,0.2-1.54-0.11-2.17
	c-0.31-0.63-2.79-6.73-3.82-9.21c-1.01-2.41-2.03-2.08-2.79-2.12c-0.72-0.04-1.54-0.04-2.37-0.04c-0.83,0-2.17,0.31-3.31,1.54
	c-1.14,1.25-4.33,4.25-4.33,10.35s4.45,12,5.05,12.83c0.63,0.83,8.74,13.34,21.18,18.72c7.87,3.4,10.95,3.69,14.88,3.11
	c2.39-0.36,7.33-2.99,8.36-5.9c1.03-2.9,1.03-5.38,0.72-5.9C74.65,60.86,73.82,60.55,72.59,59.94z"/>
</svg>
