<?xml version="1.0" encoding="UTF-8"?>
<svg id="Capa_1" data-name="Capa 1" xmlns="http://www.w3.org/2000/svg" viewBox="0 0 100 100">
  <defs>
    <style>
      .cls-1 {
        fill: #005f27;
        stroke-width: 0px;
      }
    </style>
  </defs>
  <path class="cls-1" d="M79.09,29.31c-.85-1.94-3.6-1.82-4.3.17-1.15,3.25-3.18,5.68-5.02,7.33-1.46,1.31-3.78.37-3.86-1.59C64.7,9.53,49.72,2.18,40.98.07c-1.99-.48-3.59,1.71-2.52,3.44,4.75,7.57,6.65,21.14-8.77,30.47-.28.17-.56.34-.83.51C-.5,53,13.34,98.8,48.04,99.98c.43.02.87.02,1.3.02,20.87,0,37.46-16.91,37.78-37.78.18-11.84-4.56-24.95-8.03-32.91ZM59.14,89.98c-.15.74-.76,1.31-1.48,1.55l-.5.16c-2.87.94-5.85,1.43-8.84,1.43-12.44,0-23.22-8.29-26.19-20.15-3.33-13.32,4.22-27.27,17.2-31.78.21-.08.46-.12.68-.12.81,0,1.55.47,1.89,1.2.34.72.23,1.59-.28,2.21-1.53,1.85-7.84,10.1-6.2,18.77,1.08-2.61,3-5.06,6.06-6.73.29-.15.66-.25.99-.25.66,0,1.28.32,1.68.85.38.5.5,1.23.32,1.84-.68,2.3-6.17,22.7,13.22,28.55,1.02.31,1.67,1.35,1.44,2.46Z"/>
</svg>