<?xml version="1.0" encoding="UTF-8"?>
<svg id="Capa_1" data-name="Capa 1" xmlns="http://www.w3.org/2000/svg" viewBox="0 0 100 100">
  <defs>
    <style>
      .cls-1 {
        fill: #005f27;
        stroke-width: 0px;
      }
    </style>
  </defs>
  <path class="cls-1" d="M93.76,63.62c-4.16-4.16-9.61-6.24-15.07-6.24-2.52,0-5.04.45-7.43,1.34-.2.07-.43.03-.58-.12l-1.95-1.95s0,0,0,0l-27.33-27.33c-.15-.15-.2-.38-.12-.58,2.81-7.57,1.18-16.42-4.9-22.51C31.84,1.71,25.77-.36,19.84.05c-2.82.19-4.12,3.59-2.13,5.59l7.33,7.33c1.27,1.27,1.27,3.32,0,4.59l-7.48,7.48c-1.27,1.27-3.32,1.27-4.59,0l-7.34-7.34c-1.95-1.95-5.37-.76-5.57,1.99-.48,6.35,1.88,12.88,7.08,17.52,5.99,5.34,14.38,6.69,21.59,4.03.2-.07.42-.03.57.12l1.96,1.96s0,0,0,0l27.34,27.33c.15.15.2.38.12.58-2.81,7.57-1.19,16.42,4.89,22.5,4.16,4.16,9.62,6.24,15.07,6.24s10.9-2.08,15.07-6.24c4.16-4.16,6.24-9.61,6.24-15.07s-2.08-10.9-6.24-15.07ZM88.64,77.09l-2.14,7.97c-.19.71-.74,1.27-1.45,1.45l-7.97,2.14c-.71.19-1.47-.02-1.99-.53l-5.83-5.84c-.52-.52-.72-1.27-.53-1.98l2.14-7.97c.19-.71.74-1.26,1.45-1.45l7.97-2.13c.71-.19,1.47.01,1.99.53l5.83,5.84c.52.52.72,1.27.53,1.98Z"/>
  <path class="cls-1" d="M65.39,42.68l11.77-11.77c.32-.32.84-.32,1.16,0l.43.43c.57.57,1.45.71,2.17.34l6.17-3.16c.27-.14.5-.34.68-.59l11.76-16.83c.52-.74.43-1.75-.21-2.38l-7.92-7.92c-.64-.64-1.64-.73-2.38-.21l-16.83,11.76c-.25.17-.45.41-.59.68l-3.16,6.17c-.37.72-.23,1.59.34,2.17l.43.43c.32.32.32.84,0,1.16l-11.77,11.77s0,.02,0,.03l7.92,7.92s.02,0,.03,0Z"/>
  <path class="cls-1" d="M28.48,51.16s-.01,0-.02,0c-1.21.04-2.41.51-3.34,1.44l-1,1c-1.95,1.95-1.95,5.11,0,7.06l.05.05c.32.32.32.84,0,1.16l-2.54,2.54c-.32.32-.84.32-1.16,0l-.06-.06c-1.94-1.94-5.09-1.94-7.03,0l-9.87,9.87c-4.39,4.39-4.39,11.5,0,15.88l6.28,6.28c4.39,4.39,11.5,4.39,15.88,0l9.87-9.87c1.94-1.94,1.94-5.09,0-7.03-.32-.32-.32-.84,0-1.16l2.53-2.53c.32-.32.85-.34,1.18-.01,1.94,1.94,5.09,1.94,7.03,0l1.01-1.01c.93-.93,1.4-2.13,1.44-3.34,0,0,0-.01,0-.02l-20.24-20.23Z"/>
</svg>