<?xml version="1.0" encoding="utf-8"?>
<!-- Generator: Adobe Illustrator 28.1.0, SVG Export Plug-In . SVG Version: 6.00 Build 0)  -->
<svg version="1.1" id="Capa_1" xmlns="http://www.w3.org/2000/svg" xmlns:xlink="http://www.w3.org/1999/xlink" x="0px" y="0px"
	 viewBox="0 0 100 100" style="enable-background:new 0 0 100 100;" xml:space="preserve">
<style type="text/css">
	.st0{fill:#FFFFFF;}
</style>
<path class="st0" d="M79.09,29.31c-0.85-1.94-3.6-1.82-4.3,0.17c-1.15,3.25-3.18,5.68-5.02,7.33c-1.46,1.31-3.78,0.37-3.86-1.59
	C64.7,9.53,49.72,2.18,40.98,0.07C39-0.41,37.39,1.77,38.47,3.51c4.75,7.57,6.65,21.14-8.77,30.47c-0.28,0.17-0.56,0.34-0.83,0.51
	C-0.5,53,13.34,98.8,48.04,99.98c0.43,0.02,0.87,0.02,1.3,0.02c20.87,0,37.46-16.91,37.78-37.78C87.3,50.38,82.56,37.27,79.09,29.31
	z M59.14,89.98c-0.15,0.74-0.76,1.31-1.48,1.55l-0.5,0.16c-2.87,0.94-5.85,1.43-8.84,1.43c-12.44,0-23.22-8.29-26.19-20.15
	c-3.33-13.32,4.22-27.27,17.2-31.78c0.21-0.08,0.46-0.12,0.68-0.12c0.81,0,1.55,0.47,1.89,1.2c0.34,0.72,0.23,1.59-0.28,2.21
	c-1.53,1.85-7.84,10.1-6.2,18.77c1.08-2.61,3-5.06,6.06-6.73c0.29-0.15,0.66-0.25,0.99-0.25c0.66,0,1.28,0.32,1.68,0.85
	c0.38,0.5,0.5,1.23,0.32,1.84c-0.68,2.3-6.17,22.7,13.22,28.55C58.72,87.83,59.37,88.87,59.14,89.98z"/>
</svg>
