<?xml version="1.0" encoding="utf-8"?>
<!-- Generator: Adobe Illustrator 28.1.0, SVG Export Plug-In . SVG Version: 6.00 Build 0)  -->
<svg version="1.1" id="Capa_1" xmlns="http://www.w3.org/2000/svg" xmlns:xlink="http://www.w3.org/1999/xlink" x="0px" y="0px"
	 viewBox="0 0 100 100" style="enable-background:new 0 0 100 100;" xml:space="preserve">
<style type="text/css">
	.st0{fill:#FFFFFF;}
</style>
<path class="st0" d="M10.07,13.14c-5.09,0-9.22,4.13-9.22,9.22c0,2.9,1.36,5.63,3.69,7.37l41.78,31.33c2.19,1.63,5.18,1.63,7.37,0
	l41.78-31.33c2.32-1.75,3.69-4.47,3.69-7.37c0-5.09-4.13-9.22-9.22-9.22L10.07,13.14z M0.85,34.64v39.93
	c0,6.78,5.51,12.29,12.29,12.29h73.72c6.78,0,12.29-5.51,12.29-12.29V34.64L57.37,65.97c-4.38,3.28-10.37,3.28-14.74,0L0.85,34.64z"
	/>
</svg>
