<?xml version="1.0" encoding="utf-8"?>
<!-- Generator: Adobe Illustrator 28.1.0, SVG Export Plug-In . SVG Version: 6.00 Build 0)  -->
<svg version="1.1" id="Capa_1" xmlns="http://www.w3.org/2000/svg" xmlns:xlink="http://www.w3.org/1999/xlink" x="0px" y="0px"
	 viewBox="0 0 100 100" style="enable-background:new 0 0 100 100;" xml:space="preserve">
<style type="text/css">
	.st0{fill:#FFFFFF;}
</style>
<g>
	<path class="st0" d="M68.5,72.68c-0.02,0-0.03,0-0.05,0c-0.01,0.01-0.01,0.02-0.02,0.02c-0.95,1.25-2.54,3.35-5.29,4.24
		c-0.85,0.27-1.74,0.41-2.67,0.41c-1.62,0-3.02-0.43-4.05-0.74c-0.02-0.01-0.04-0.01-0.05-0.02c0,0-0.01,0-0.01,0.01
		c-1.29,0.9-3.46,2.4-6.36,2.4s-5.07-1.51-6.36-2.4c0,0-0.01,0-0.01-0.01c-0.02,0.01-0.04,0.01-0.05,0.02
		c-1.03,0.31-2.43,0.74-4.05,0.74c-0.93,0-1.82-0.14-2.67-0.41c-2.76-0.9-4.34-2.99-5.29-4.25c-0.01-0.01-0.01-0.02-0.02-0.02
		c-0.02,0-0.03,0-0.05,0c-0.71-0.02-1.58-0.03-2.52-0.18c-1.01-0.16-2.01,0.36-2.41,1.3L20.3,88.65c-0.68,1.62,0.72,3.34,2.44,3
		l9.73-1.89c0.87-0.17,1.77,0.21,2.25,0.95l5.42,8.29c0.96,1.47,3.17,1.27,3.85-0.35l4.04-9.57c0.76-1.8,3.31-1.78,4.05,0.03
		l3.84,9.45c0.66,1.63,2.87,1.86,3.85,0.4l5.54-8.22c0.5-0.74,1.39-1.1,2.27-0.92l9.7,2.03c1.72,0.36,3.14-1.34,2.48-2.97
		l-6.13-15.1c-0.39-0.97-1.42-1.5-2.45-1.33C70.17,72.64,69.25,72.66,68.5,72.68z"/>
	<path class="st0" d="M83.91,41.87c0.28-1.81,2.58-3.49,2.58-5.37s-2.3-3.57-2.58-5.37c-0.29-1.85,1.37-4.16,0.81-5.91
		c-0.58-1.78-3.29-2.67-4.12-4.31c-0.85-1.66,0.02-4.37-1.07-5.87c-1.09-1.5-3.94-1.51-5.25-2.82c-1.31-1.31-1.32-4.16-2.82-5.25
		c-1.49-1.09-4.21-0.22-5.87-1.07c-1.64-0.84-2.53-3.55-4.31-4.12c-1.75-0.57-4.05,1.1-5.91,0.81C53.57,2.3,51.88,0,50,0
		s-3.57,2.3-5.37,2.58c-1.85,0.29-4.16-1.37-5.91-0.81c-1.78,0.58-2.66,3.29-4.31,4.12c-1.66,0.85-4.37-0.02-5.87,1.07
		c-1.5,1.09-1.51,3.94-2.82,5.25c-1.31,1.31-4.16,1.32-5.25,2.82c-1.09,1.49-0.22,4.21-1.07,5.87c-0.84,1.64-3.55,2.53-4.12,4.31
		c-0.57,1.75,1.1,4.05,0.81,5.91c-0.28,1.81-2.58,3.49-2.58,5.37c0,1.88,2.3,3.57,2.58,5.37c0.29,1.85-1.37,4.16-0.81,5.91
		c0.58,1.78,3.29,2.67,4.12,4.31c0.85,1.66-0.02,4.37,1.07,5.87c1.09,1.5,3.94,1.51,5.25,2.82c1.31,1.31,1.32,4.16,2.82,5.25
		c1.49,1.09,4.21,0.22,5.87,1.07c1.64,0.84,2.53,3.55,4.31,4.12c1.75,0.57,4.05-1.1,5.91-0.81c1.81,0.28,3.49,2.58,5.37,2.58
		s3.57-2.3,5.37-2.58c1.85-0.29,4.16,1.37,5.91,0.81c1.78-0.58,2.66-3.29,4.31-4.12c1.66-0.85,4.37,0.02,5.87-1.07
		c1.5-1.09,1.51-3.94,2.82-5.25c1.31-1.31,4.16-1.32,5.25-2.82c1.09-1.49,0.22-4.21,1.07-5.87c0.84-1.64,3.55-2.53,4.12-4.31
		C85.28,46.03,83.62,43.72,83.91,41.87z M52.21,63.66c-16.79,1.32-30.7-12.59-29.38-29.38c1.04-13.21,11.75-23.92,24.96-24.96
		C64.58,8,78.49,21.91,77.17,38.71C76.13,51.92,65.42,62.62,52.21,63.66z"/>
	<circle class="st0" cx="50" cy="36.49" r="23"/>
</g>
</svg>
