<?xml version="1.0" encoding="utf-8"?>
<!-- Generator: Adobe Illustrator 28.1.0, SVG Export Plug-In . SVG Version: 6.00 Build 0)  -->
<svg version="1.1" id="Capa_1" xmlns="http://www.w3.org/2000/svg" xmlns:xlink="http://www.w3.org/1999/xlink" x="0px" y="0px"
	 viewBox="0 0 14 14" style="enable-background:new 0 0 14 14;" xml:space="preserve">
<style type="text/css">
	.st0{fill-rule:evenodd;clip-rule:evenodd;fill:#FFFFFF;}
</style>
<path class="st0" d="M2.23,10.96c-0.45-0.15-0.76-0.45-0.92-0.89c-0.4-1.1-0.52-5.68,0.25-6.59c0.26-0.31,0.6-0.49,1-0.53
	c2.07-0.22,8.46-0.19,9.2,0.07c0.43,0.16,0.74,0.44,0.9,0.87c0.44,1.13,0.45,5.26-0.06,6.35c-0.14,0.3-0.36,0.51-0.65,0.66
	C11.2,11.3,3.25,11.29,2.23,10.96z M5.52,8.81C6.77,8.16,8,7.52,9.25,6.88C8,6.22,6.76,5.58,5.52,4.93
	C5.52,6.23,5.52,7.51,5.52,8.81z"/>
</svg>
