<?xml version="1.0" encoding="utf-8"?>
<!-- Generator: Adobe Illustrator 28.1.0, SVG Export Plug-In . SVG Version: 6.00 Build 0)  -->
<svg version="1.1" id="Capa_1" xmlns="http://www.w3.org/2000/svg" xmlns:xlink="http://www.w3.org/1999/xlink" x="0px" y="0px"
	 viewBox="0 0 150 30" style="enable-background:new 0 0 150 30;" xml:space="preserve">
<style type="text/css">
	.st0{fill:#005F27;}
	.st1{fill:#1D1D1B;}
</style>
<g>
	<path class="st0" d="M23.12,24.64c-5.83-4.26-7.93-8.81-8.16-12.48c-0.41-5.6,5.95-4.96,7.52-4.72c0.12,0,0.12-0.12,0.06-0.17
		c-1.69-1.17-5.02-2.16-8.05-0.17c-3.21,2.1-3.09,5.13-3.03,6.06c0.47,6.3,6.71,11.66,10.5,13.59c8.75,4.32,13.3,1.4,14.58,0.29
		C35.14,27.96,30.06,29.65,23.12,24.64"/>
	<path class="st0" d="M28.31,12.74c0,0-2.22-8.28-11.9-7.87C11.29,5.04,6.97,8.6,6.33,15.31c-0.06,0.29-0.35,4.43,1.4,9.04
		c0.06,0.12-0.12,0.17-0.17,0.06c-1.34-2.57-3.79-8.57-1.81-14.81c1.22-3.85,7.06-7.81,13.88-5.77c6.88,2.04,9.8,6.82,9.33,8.63
		c0,0-0.06,0.47-0.35,0.47C28.37,12.91,28.31,12.74,28.31,12.74"/>
	<path class="st0" d="M18.57,11.57c0.41,1.46,1.46,4.49,4.96,6.76c4.08,2.57,9.21,1.98,10.38-1.22c0.93-2.45,0.06-6.65-4.43-10.9
		c0,0,3.62,2.92,5.25,7.76c0,0,3.15,8.46-4.78,8.98l0,0c-0.12,0-4.49,0.7-10.03-4.49c-0.87-0.82-4.2-4.72-2.62-7.58
		c0,0,0.17-0.35,0.52-0.52c0.35-0.17,0.47,0.06,0.47,0.23C18.34,10.64,18.4,10.93,18.57,11.57"/>
	<path class="st0" d="M24.29,16.18c-0.06,0-0.12,0.06-0.06,0.12c0.41,0.52,1.81,1.87,4.26,1.81c3.03-0.06,4.26-2.68,3.5-5.66
		c-0.41-1.57-2.57-6.06-9.45-9.45c-1.11-0.52-7.76-3.44-15.69-1.17c0,0,7.41-2.45,15.51,1.57c0.93,0.47,6.76,3.85,7.81,8.57
		C30.53,13.67,30.59,17.23,24.29,16.18"/>
	<rect x="39.04" y="6.68" class="st1" width="2.51" height="13.41"/>
	<path class="st1" d="M44.17,10.17h2.51v0.99c0.58-0.47,1.05-0.82,1.52-0.99c0.47-0.17,0.93-0.29,1.4-0.29
		c0.99,0,1.81,0.35,2.51,1.05c0.58,0.58,0.87,1.46,0.87,2.57v6.53h-2.45v-4.32c0-1.17-0.06-1.98-0.17-2.33
		c-0.12-0.41-0.29-0.7-0.58-0.87c-0.29-0.17-0.58-0.29-0.99-0.29c-0.52,0-0.93,0.17-1.28,0.52s-0.58,0.82-0.76,1.4
		c-0.06,0.29-0.12,0.99-0.12,1.98v3.97h-2.51v-9.91H44.17z"/>
	<polygon class="st1" points="55.66,6.5 58.17,6.5 58.17,10.17 59.63,10.17 59.63,12.27 58.17,12.27 58.17,20.09 55.66,20.09 
		55.66,12.27 54.38,12.27 54.38,10.17 55.66,10.17 	"/>
	<path class="st1" d="M63.01,13.85c0.29-0.64,0.58-1.05,0.93-1.28c0.52-0.41,1.11-0.58,1.81-0.58c0.64,0,1.22,0.17,1.69,0.52
		s0.82,0.82,0.99,1.34L63.01,13.85z M70.88,15.36c0-1.63-0.47-2.97-1.46-3.97c-0.99-0.99-2.27-1.52-3.79-1.52
		c-1.46,0-2.68,0.52-3.67,1.52s-1.46,2.27-1.46,3.79c0,1.46,0.47,2.68,1.46,3.67c0.99,0.99,2.22,1.46,3.79,1.46
		c0.99,0,1.87-0.17,2.62-0.52c0.7-0.35,1.34-0.87,1.87-1.63l-2.1-0.99c-0.64,0.64-1.46,0.99-2.39,0.99c-0.76,0-1.4-0.23-1.92-0.64
		c-0.52-0.41-0.82-0.99-0.93-1.69h7.99V15.36z"/>
	<path class="st1" d="M77.65,12.22c-0.76,0-1.46,0.29-1.92,0.82c-0.52,0.52-0.76,1.17-0.76,1.98c0,0.82,0.23,1.52,0.76,2.04
		c0.52,0.52,1.17,0.82,1.98,0.82c0.76,0,1.4-0.23,1.92-0.76c0.52-0.52,0.76-1.17,0.76-2.04c0-0.82-0.23-1.52-0.76-2.04
		C79.1,12.51,78.46,12.22,77.65,12.22 M80.21,10.17h2.45v8.51c0,1.69-0.35,2.92-0.99,3.67c-0.93,1.05-2.27,1.57-4.08,1.57
		c-0.99,0-1.81-0.12-2.45-0.35c-0.64-0.23-1.22-0.58-1.69-1.05s-0.82-1.05-0.99-1.69h2.74c0.23,0.29,0.58,0.47,0.93,0.64
		c0.41,0.12,0.82,0.23,1.34,0.23c0.64,0,1.22-0.12,1.63-0.29c0.41-0.23,0.7-0.47,0.87-0.82c0.17-0.35,0.23-0.87,0.23-1.69
		c-0.47,0.41-0.87,0.76-1.4,0.93c-0.47,0.17-1.05,0.29-1.63,0.29c-1.34,0-2.45-0.47-3.38-1.46c-0.93-0.93-1.4-2.16-1.4-3.62
		c0-1.57,0.47-2.86,1.46-3.79c0.87-0.87,1.92-1.28,3.15-1.28c0.58,0,1.11,0.12,1.63,0.29c0.52,0.23,0.99,0.58,1.52,1.05v-1.17H80.21
		z"/>
	<path class="st1" d="M84.64,10.17h2.16v1.22c0.23-0.47,0.52-0.87,0.93-1.11s0.82-0.41,1.28-0.41c0.35,0,0.64,0.06,0.99,0.23
		l-0.76,2.16c-0.29-0.17-0.52-0.23-0.7-0.23c-0.41,0-0.7,0.23-0.99,0.7s-0.41,1.4-0.41,2.8v0.47v4.02H84.7v-9.86H84.64z"/>
	<path class="st1" d="M92.17,6.09c0.41,0,0.82,0.17,1.11,0.47c0.29,0.29,0.47,0.7,0.47,1.17s-0.17,0.82-0.47,1.11
		c-0.29,0.29-0.7,0.47-1.11,0.47c-0.47,0-0.82-0.17-1.11-0.47c-0.29-0.29-0.47-0.7-0.47-1.17c0-0.41,0.17-0.82,0.47-1.11
		C91.35,6.21,91.76,6.09,92.17,6.09"/>
	<rect x="90.94" y="10.17" class="st1" width="2.51" height="9.91"/>
	<polygon class="st1" points="95.96,6.5 98.47,6.5 98.47,10.17 99.92,10.17 99.92,12.27 98.47,12.27 98.47,20.09 95.96,20.09 
		95.96,12.27 94.67,12.27 94.67,10.17 95.96,10.17 	"/>
	<path class="st1" d="M102.14,23.18c0.87,0.12,1.63,0.29,2.39,0.41l6.18-13.41h-2.57l-2.86,6.24l-2.57-6.24h-2.57l3.79,9.16
		L102.14,23.18z"/>
	<polygon class="st0" points="113.45,6.68 120.1,6.68 120.1,9.18 115.96,9.18 115.96,11.57 120.1,11.57 120.1,14.02 115.96,14.02 
		115.96,20.09 113.45,20.09 	"/>
	<path class="st0" d="M121.79,10.17h2.51v9.91h-2.51V10.17z M123.07,6.09c0.41,0,0.82,0.17,1.11,0.47c0.29,0.29,0.47,0.7,0.47,1.17
		s-0.17,0.82-0.47,1.11c-0.29,0.29-0.7,0.47-1.11,0.47c-0.47,0-0.82-0.17-1.11-0.47c-0.29-0.29-0.47-0.7-0.47-1.17
		s0.17-0.82,0.47-1.11C122.26,6.21,122.61,6.09,123.07,6.09"/>
	<path class="st0" d="M125.99,10.17h2.16v1.22c0.23-0.47,0.52-0.87,0.93-1.11s0.82-0.41,1.28-0.41c0.35,0,0.64,0.06,0.99,0.23
		l-0.76,2.16c-0.29-0.17-0.52-0.23-0.7-0.23c-0.41,0-0.7,0.23-0.99,0.7s-0.41,1.4-0.41,2.8v0.47v4.02h-2.45v-9.86H125.99z"/>
	<path class="st0" d="M138.59,11.52l-1.52,1.52c-0.64-0.64-1.17-0.93-1.69-0.93c-0.29,0-0.52,0.06-0.64,0.17
		c-0.17,0.12-0.23,0.29-0.23,0.47c0,0.12,0.06,0.23,0.17,0.35s0.35,0.29,0.76,0.47l0.93,0.47c0.93,0.47,1.63,0.93,1.98,1.46
		c0.35,0.47,0.52,1.05,0.52,1.75c0,0.87-0.35,1.63-0.99,2.22c-0.64,0.58-1.52,0.87-2.62,0.87c-1.46,0-2.62-0.58-3.44-1.69l1.52-1.69
		c0.29,0.35,0.64,0.64,1.05,0.82c0.41,0.23,0.76,0.29,1.05,0.29c0.35,0,0.58-0.06,0.82-0.23c0.17-0.17,0.29-0.35,0.29-0.52
		c0-0.41-0.35-0.76-1.11-1.11l-0.82-0.41c-1.57-0.82-2.39-1.81-2.39-3.03c0-0.76,0.29-1.46,0.93-1.98c0.58-0.58,1.4-0.82,2.33-0.82
		c0.64,0,1.22,0.12,1.81,0.41C137.71,10.58,138.18,10.99,138.59,11.52"/>
	<polygon class="st0" points="141.03,6.5 143.54,6.5 143.54,10.17 145,10.17 145,12.27 143.54,12.27 143.54,20.09 141.03,20.09 
		141.03,12.27 139.75,12.27 139.75,10.17 141.03,10.17 	"/>
</g>
</svg>
