<?xml version="1.0" encoding="utf-8"?>
<!-- Generator: Adobe Illustrator 28.1.0, SVG Export Plug-In . SVG Version: 6.00 Build 0)  -->
<svg version="1.1" id="Capa_1" xmlns="http://www.w3.org/2000/svg" xmlns:xlink="http://www.w3.org/1999/xlink" x="0px" y="0px"
	 viewBox="0 0 50 50" style="enable-background:new 0 0 50 50;" xml:space="preserve">
<style type="text/css">
	.st0{fill:#005F27;}
	.st1{fill:none;stroke:#FFC72F;stroke-width:2;stroke-miterlimit:10;}
</style>
<g>
	<path class="st0" d="M34.23,14.05c-0.27-0.61-1.14-0.58-1.37,0.05c-0.36,1.03-1.01,1.8-1.59,2.33c-0.46,0.42-1.2,0.12-1.23-0.5
		c-0.38-8.16-5.14-10.49-7.91-11.16c-0.63-0.15-1.14,0.54-0.8,1.09c1.51,2.4,2.11,6.71-2.78,9.68c-0.09,0.05-0.18,0.11-0.26,0.16
		c-9.32,5.87-4.93,20.42,6.09,20.79c0.14,0,0.27,0.01,0.41,0.01c6.62,0,11.89-5.37,12-12C36.84,20.74,35.34,16.57,34.23,14.05z
		 M27.9,33.31c-0.05,0.24-0.24,0.42-0.47,0.49l-0.16,0.05c-0.91,0.3-1.86,0.45-2.81,0.45c-3.95,0-7.37-2.63-8.31-6.4
		c-1.06-4.23,1.34-8.66,5.46-10.09c0.07-0.02,0.15-0.04,0.22-0.04c0.26,0,0.49,0.15,0.6,0.38c0.11,0.23,0.07,0.51-0.09,0.7
		c-0.49,0.59-2.49,3.21-1.97,5.96c0.34-0.83,0.95-1.61,1.92-2.14c0.09-0.05,0.21-0.08,0.32-0.08c0.21,0,0.41,0.1,0.53,0.27
		c0.12,0.16,0.16,0.39,0.1,0.58c-0.22,0.73-1.96,7.21,4.2,9.06C27.77,32.63,27.97,32.96,27.9,33.31z"/>
	<line class="st1" x1="14.77" y1="45.26" x2="35.23" y2="45.26"/>
</g>
</svg>
