<?xml version="1.0" encoding="utf-8"?>
<!-- Generator: Adobe Illustrator 28.1.0, SVG Export Plug-In . SVG Version: 6.00 Build 0)  -->
<svg version="1.1" id="Capa_1" xmlns="http://www.w3.org/2000/svg" xmlns:xlink="http://www.w3.org/1999/xlink" x="0px" y="0px"
	 viewBox="0 0 50 50" style="enable-background:new 0 0 50 50;" xml:space="preserve">
<style type="text/css">
	.st0{fill:#005F27;}
	.st1{fill:none;stroke:#FFC72F;stroke-width:2;stroke-miterlimit:10;}
</style>
<path class="st0" d="M897.29,1970.08h16.79c0.47,0,0.77,0.5,0.54,0.91l-6.63,12.27c-0.22,0.41,0.08,0.91,0.54,0.91h5.22
	c0.53,0,0.82,0.63,0.47,1.03l-15.69,18.01c-0.43,0.49-1.23,0.07-1.06-0.57l2.87-10.72c0.11-0.39-0.19-0.78-0.6-0.78h-6.49
	c-0.39,0-0.68-0.36-0.61-0.74l4.02-19.82C896.74,1970.28,897,1970.08,897.29,1970.08z"/>
<line class="st1" x1="892.29" y1="2012.71" x2="914.71" y2="2012.71"/>
<g>
	<path class="st0" d="M19.77,2.62h16.79c0.47,0,0.77,0.5,0.54,0.91L30.47,15.8c-0.22,0.41,0.08,0.91,0.54,0.91h5.22
		c0.53,0,0.82,0.63,0.47,1.03L21.02,35.75c-0.43,0.49-1.23,0.07-1.06-0.57l2.87-10.72c0.11-0.39-0.19-0.78-0.6-0.78h-6.49
		c-0.39,0-0.68-0.36-0.61-0.74l4.02-19.82C19.22,2.83,19.47,2.62,19.77,2.62z"/>
	<line class="st1" x1="14.77" y1="45.26" x2="37.18" y2="45.26"/>
</g>
</svg>
