<?xml version="1.0" encoding="utf-8"?>
<!-- Generator: Adobe Illustrator 28.1.0, SVG Export Plug-In . SVG Version: 6.00 Build 0)  -->
<svg version="1.1" id="Capa_1" xmlns="http://www.w3.org/2000/svg" xmlns:xlink="http://www.w3.org/1999/xlink" x="0px" y="0px"
	 viewBox="0 0 14 14" style="enable-background:new 0 0 14 14;" xml:space="preserve">
<style type="text/css">
	.st0{fill:#FFFFFF;}
</style>
<path class="st0" d="M12.9,4.01c-0.08-0.79-0.38-1.49-0.97-2.05c-0.62-0.59-1.37-0.85-2.2-0.89C8.32,0.99,4.97,0.95,3.8,1.14
	c-1.34,0.22-2.22,1-2.6,2.33C0.92,4.49,0.97,9.19,1.14,10.2c0.23,1.38,1.04,2.26,2.41,2.62c0.95,0.24,5.6,0.21,6.64,0.04
	c1.38-0.22,2.27-1.03,2.63-2.4C13.09,9.42,13,4.96,12.9,4.01z M11.8,10.01c-0.16,1.05-0.86,1.7-1.91,1.81
	c-0.97,0.11-5.29,0.16-6.19-0.09c-0.86-0.24-1.35-0.83-1.49-1.69c-0.14-0.83-0.17-4.95,0-6.06c0.16-1.04,0.85-1.69,1.9-1.8
	C5.17,2.06,9,2.05,10.01,2.2c1.05,0.16,1.69,0.86,1.81,1.91C11.93,5.1,11.96,8.95,11.8,10.01z M7,3.92C5.3,3.92,3.92,5.3,3.92,7
	c0,1.7,1.38,3.08,3.08,3.08S10.08,8.7,10.08,7C10.08,5.3,8.7,3.93,7,3.92z M6.98,8.99C5.88,8.98,5,8.08,5.01,6.98
	C5.02,5.88,5.92,5,7.02,5.01C8.11,5.02,9,5.92,8.99,7.02C8.98,8.12,8.08,9,6.98,8.99z M10.92,3.81c0,0.4-0.32,0.72-0.72,0.72
	c-0.4,0-0.72-0.32-0.72-0.72c0-0.4,0.32-0.72,0.72-0.72C10.6,3.09,10.92,3.41,10.92,3.81z"/>
</svg>
