<?xml version="1.0" encoding="utf-8"?>
<!-- Generator: Adobe Illustrator 28.1.0, SVG Export Plug-In . SVG Version: 6.00 Build 0)  -->
<svg version="1.1" id="Capa_1" xmlns="http://www.w3.org/2000/svg" xmlns:xlink="http://www.w3.org/1999/xlink" x="0px" y="0px"
	 viewBox="0 0 190 100" style="enable-background:new 0 0 190 100;" xml:space="preserve">
<style type="text/css">
	.st0{fill:#FFFFFF;}
</style>
<g>
	<g>
		<rect x="9.59" y="61.79" class="st0" width="4.04" height="21.62"/>
		<path class="st0" d="M17.86,67.43h4.04v1.6c0.94-0.75,1.69-1.32,2.44-1.6c0.75-0.28,1.5-0.47,2.26-0.47c1.6,0,2.91,0.56,4.04,1.69
			c0.94,0.94,1.41,2.35,1.41,4.14v10.53h-3.95v-6.96c0-1.88-0.09-3.2-0.28-3.76c-0.19-0.66-0.47-1.13-0.94-1.41
			c-0.47-0.28-0.94-0.47-1.6-0.47c-0.85,0-1.5,0.28-2.07,0.85c-0.56,0.56-0.94,1.32-1.22,2.26c-0.09,0.47-0.19,1.6-0.19,3.2v6.39
			h-4.04V67.43H17.86z"/>
		<polygon class="st0" points="36.38,61.51 40.43,61.51 40.43,67.43 42.78,67.43 42.78,70.82 40.43,70.82 40.43,83.42 36.38,83.42 
			36.38,70.82 34.32,70.82 34.32,67.43 36.38,67.43 		"/>
		<path class="st0" d="M48.23,73.36c0.47-1.03,0.94-1.69,1.5-2.07c0.85-0.66,1.79-0.94,2.91-0.94c1.03,0,1.97,0.28,2.73,0.85
			c0.75,0.56,1.32,1.32,1.6,2.16H48.23z M60.92,75.8c0-2.63-0.75-4.79-2.35-6.39c-1.6-1.6-3.67-2.44-6.11-2.44
			c-2.35,0-4.32,0.85-5.92,2.44c-1.6,1.6-2.35,3.67-2.35,6.11c0,2.35,0.75,4.32,2.35,5.92c1.6,1.6,3.57,2.35,6.11,2.35
			c1.6,0,3.01-0.28,4.23-0.85c1.13-0.56,2.16-1.41,3.01-2.63l-3.38-1.6c-1.03,1.03-2.35,1.6-3.85,1.6c-1.22,0-2.26-0.38-3.1-1.03
			c-0.85-0.66-1.32-1.6-1.5-2.73h12.88L60.92,75.8z"/>
		<path class="st0" d="M71.83,70.72c-1.22,0-2.35,0.47-3.1,1.32c-0.85,0.85-1.22,1.88-1.22,3.2s0.38,2.44,1.22,3.29
			s1.88,1.32,3.2,1.32c1.22,0,2.26-0.38,3.1-1.22c0.85-0.85,1.22-1.88,1.22-3.29c0-1.32-0.38-2.44-1.22-3.29
			C74.18,71.19,73.14,70.72,71.83,70.72 M75.96,67.43h3.95v13.73c0,2.73-0.56,4.7-1.6,5.92c-1.5,1.69-3.67,2.54-6.58,2.54
			c-1.6,0-2.91-0.19-3.95-0.56c-1.03-0.38-1.97-0.94-2.73-1.69c-0.75-0.75-1.32-1.69-1.6-2.73h4.42c0.38,0.47,0.94,0.75,1.5,1.03
			c0.66,0.19,1.32,0.38,2.16,0.38c1.03,0,1.97-0.19,2.63-0.47c0.66-0.38,1.13-0.75,1.41-1.32c0.28-0.56,0.38-1.41,0.38-2.73
			c-0.75,0.66-1.41,1.22-2.26,1.5c-0.75,0.28-1.69,0.47-2.63,0.47c-2.16,0-3.95-0.75-5.45-2.35c-1.5-1.5-2.26-3.48-2.26-5.83
			c0-2.54,0.75-4.61,2.35-6.11c1.41-1.41,3.1-2.07,5.08-2.07c0.94,0,1.79,0.19,2.63,0.47c0.85,0.38,1.6,0.94,2.44,1.69v-1.88H75.96z
			"/>
		<path class="st0" d="M83.11,67.43h3.48v1.97c0.38-0.75,0.85-1.41,1.5-1.79c0.66-0.38,1.32-0.66,2.07-0.66
			c0.56,0,1.03,0.09,1.6,0.38l-1.22,3.48c-0.47-0.28-0.85-0.38-1.13-0.38c-0.66,0-1.13,0.38-1.6,1.13
			c-0.47,0.75-0.66,2.26-0.66,4.51v0.75v6.49H83.2V67.43H83.11z"/>
		<path class="st0" d="M95.24,60.85c0.66,0,1.32,0.28,1.79,0.75c0.47,0.47,0.75,1.13,0.75,1.88c0,0.75-0.28,1.32-0.75,1.79
			s-1.13,0.75-1.79,0.75c-0.75,0-1.32-0.28-1.79-0.75c-0.47-0.47-0.75-1.13-0.75-1.88c0-0.66,0.28-1.32,0.75-1.79
			C93.92,61.04,94.58,60.85,95.24,60.85"/>
		<rect x="93.26" y="67.43" class="st0" width="4.04" height="15.98"/>
		<polygon class="st0" points="101.35,61.51 105.39,61.51 105.39,67.43 107.74,67.43 107.74,70.82 105.39,70.82 105.39,83.42 
			101.35,83.42 101.35,70.82 99.28,70.82 99.28,67.43 101.35,67.43 		"/>
		<path class="st0" d="M111.31,88.4c1.41,0.19,2.63,0.47,3.85,0.66l9.97-21.62h-4.14l-4.61,10.06l-4.14-10.06h-4.14l6.11,14.76
			L111.31,88.4z"/>
	</g>
	<g>
		<g>
			<path class="st0" d="M98.8,48.52c-9.4-6.86-12.79-14.2-13.16-20.12c-0.66-9.03,9.59-7.99,12.13-7.61c0.19,0,0.19-0.19,0.09-0.28
				c-2.73-1.88-8.08-3.48-12.97-0.28C79.71,23.61,79.9,28.49,80,30c0.75,10.15,10.81,18.8,16.92,21.9
				c14.1,6.96,21.43,2.26,23.5,0.47C118.16,53.88,109.98,56.6,98.8,48.52"/>
			<path class="st0" d="M107.16,29.34c0,0-3.57-13.35-19.18-12.69c-8.27,0.28-15.23,6.02-16.26,16.83
				c-0.09,0.47-0.56,7.14,2.26,14.57c0.09,0.19-0.19,0.28-0.28,0.09c-2.16-4.14-6.11-13.82-2.91-23.88
				c1.97-6.2,11.38-12.6,22.37-9.31c11.09,3.29,15.79,11,15.04,13.91c0,0-0.09,0.75-0.56,0.75
				C107.26,29.62,107.16,29.34,107.16,29.34"/>
			<path class="st0" d="M91.46,27.46c0.66,2.35,2.35,7.24,7.99,10.91c6.58,4.14,14.85,3.2,16.73-1.97
				c1.5-3.95,0.09-10.72-7.14-17.58c0,0,5.83,4.7,8.46,12.5c0,0,5.08,13.63-7.71,14.48l0,0c-0.19,0-7.24,1.13-16.17-7.24
				c-1.41-1.32-6.77-7.61-4.23-12.22c0,0,0.28-0.56,0.85-0.85c0.56-0.28,0.75,0.09,0.75,0.38C91.09,25.96,91.18,26.43,91.46,27.46"
				/>
			<path class="st0" d="M100.68,34.89c-0.09,0-0.19,0.09-0.09,0.19c0.66,0.85,2.91,3.01,6.86,2.91c4.89-0.09,6.86-4.32,5.64-9.12
				c-0.66-2.54-4.14-9.78-15.23-15.23c-1.79-0.85-12.5-5.55-25.29-1.88c0,0,11.94-3.95,25.01,2.54c1.5,0.75,10.91,6.2,12.6,13.82
				C110.74,30.84,110.83,36.58,100.68,34.89"/>
		</g>
		<g>
			<polygon class="st0" points="129.55,61.79 140.27,61.79 140.27,65.84 133.59,65.84 133.59,69.69 140.27,69.69 140.27,73.64 
				133.59,73.64 133.59,83.42 129.55,83.42 			"/>
			<path class="st0" d="M142.99,67.43h4.04v15.98h-4.04V67.43z M145.06,60.85c0.66,0,1.32,0.28,1.79,0.75
				c0.47,0.47,0.75,1.13,0.75,1.88c0,0.75-0.28,1.32-0.75,1.79c-0.47,0.47-1.13,0.75-1.79,0.75c-0.75,0-1.32-0.28-1.79-0.75
				c-0.47-0.47-0.75-1.13-0.75-1.88s0.28-1.32,0.75-1.79C143.74,61.04,144.31,60.85,145.06,60.85"/>
			<path class="st0" d="M149.76,67.43h3.48v1.97c0.38-0.75,0.85-1.41,1.5-1.79s1.32-0.66,2.07-0.66c0.56,0,1.03,0.09,1.6,0.38
				l-1.22,3.48c-0.47-0.28-0.85-0.38-1.13-0.38c-0.66,0-1.13,0.38-1.6,1.13c-0.47,0.75-0.66,2.26-0.66,4.51v0.75v6.49h-3.95V67.43
				H149.76z"/>
			<path class="st0" d="M170.07,69.6l-2.44,2.44c-1.03-1.03-1.88-1.5-2.73-1.5c-0.47,0-0.85,0.09-1.03,0.28
				c-0.28,0.19-0.38,0.47-0.38,0.75c0,0.19,0.09,0.38,0.28,0.56c0.19,0.19,0.56,0.47,1.22,0.75l1.5,0.75c1.5,0.75,2.63,1.5,3.2,2.35
				c0.56,0.75,0.85,1.69,0.85,2.82c0,1.41-0.56,2.63-1.6,3.57c-1.03,0.94-2.44,1.41-4.23,1.41c-2.35,0-4.23-0.94-5.55-2.73
				l2.44-2.73c0.47,0.56,1.03,1.03,1.69,1.32c0.66,0.38,1.22,0.47,1.69,0.47c0.56,0,0.94-0.09,1.32-0.38
				c0.28-0.28,0.47-0.56,0.47-0.85c0-0.66-0.56-1.22-1.79-1.79l-1.32-0.66c-2.54-1.32-3.85-2.91-3.85-4.89c0-1.22,0.47-2.35,1.5-3.2
				c0.94-0.94,2.26-1.32,3.76-1.32c1.03,0,1.97,0.19,2.91,0.66C168.66,68.09,169.41,68.75,170.07,69.6"/>
			<polygon class="st0" points="174.02,61.51 178.06,61.51 178.06,67.43 180.41,67.43 180.41,70.82 178.06,70.82 178.06,83.42 
				174.02,83.42 174.02,70.82 171.95,70.82 171.95,67.43 174.02,67.43 			"/>
		</g>
	</g>
</g>
</svg>
