<?xml version="1.0" encoding="utf-8"?>
<!-- Generator: Adobe Illustrator 28.1.0, SVG Export Plug-In . SVG Version: 6.00 Build 0)  -->
<svg version="1.1" id="Capa_1" xmlns="http://www.w3.org/2000/svg" xmlns:xlink="http://www.w3.org/1999/xlink" x="0px" y="0px"
	 viewBox="0 0 150 32" style="enable-background:new 0 0 150 32;" xml:space="preserve">
<style type="text/css">
	.st0{fill:#FFFFFF;}
</style>
<g>
	<path class="st0" d="M19.41,26.32c-6.25-4.56-8.5-9.44-8.74-13.37c-0.44-6,6.38-5.31,8.06-5.06c0.13,0,0.13-0.13,0.06-0.18
		c-1.81-1.25-5.38-2.31-8.63-0.18c-3.44,2.25-3.31,5.5-3.25,6.49c0.5,6.75,7.19,12.49,11.25,14.56c9.38,4.63,14.25,1.5,15.62,0.31
		C32.29,29.88,26.84,31.69,19.41,26.32"/>
	<path class="st0" d="M24.97,13.57c0,0-2.38-8.87-12.75-8.43c-5.49,0.18-10.11,4-10.8,11.19c-0.06,0.31-0.38,4.75,1.5,9.69
		c0.06,0.13-0.13,0.18-0.18,0.06C1.3,23.32-1.32,16.89,0.8,10.21C2.1,6.08,8.36,1.84,15.67,4.02c7.37,2.19,10.5,7.31,10,9.25
		c0,0-0.06,0.5-0.38,0.5C25.03,13.75,24.97,13.57,24.97,13.57"/>
	<path class="st0" d="M14.53,12.32c0.44,1.56,1.56,4.81,5.31,7.24c4.37,2.75,9.87,2.12,11.12-1.31c1-2.63,0.06-7.13-4.75-11.68
		c0,0,3.88,3.13,5.63,8.31c0,0,3.38,9.06-5.12,9.62l0,0c-0.13,0-4.81,0.75-10.75-4.81c-0.93-0.88-4.5-5.06-2.81-8.12
		c0,0,0.18-0.38,0.56-0.56s0.5,0.06,0.5,0.25C14.29,11.32,14.35,11.63,14.53,12.32"/>
	<path class="st0" d="M20.66,17.26c-0.06,0-0.13,0.06-0.06,0.13c0.44,0.56,1.94,2,4.56,1.94c3.25-0.06,4.56-2.87,3.75-6.06
		c-0.44-1.68-2.75-6.49-10.13-10.13C17.6,2.58,10.47-0.55,1.98,1.88c0,0,7.94-2.63,16.62,1.68c1,0.5,7.24,4.13,8.37,9.18
		C27.35,14.57,27.41,18.38,20.66,17.26"/>
	<rect x="36.47" y="7.08" class="st0" width="2.69" height="14.37"/>
	<path class="st0" d="M41.96,10.82h2.69v1.06c0.62-0.5,1.13-0.88,1.63-1.06c0.5-0.18,1-0.31,1.5-0.31c1.06,0,1.94,0.38,2.69,1.13
		c0.62,0.62,0.93,1.56,0.93,2.75v7h-2.63v-4.63c0-1.25-0.06-2.12-0.18-2.5c-0.13-0.44-0.31-0.75-0.62-0.93s-0.62-0.31-1.06-0.31
		c-0.56,0-1,0.18-1.37,0.56c-0.38,0.38-0.62,0.88-0.81,1.5c-0.06,0.31-0.13,1.06-0.13,2.12v4.25h-2.69V10.83h0.05V10.82z"/>
	<polygon class="st0" points="54.27,6.88 56.96,6.88 56.96,10.82 58.53,10.82 58.53,13.07 56.96,13.07 56.96,21.45 54.27,21.45 
		54.27,13.07 52.9,13.07 52.9,10.82 54.27,10.82 	"/>
	<path class="st0" d="M62.15,14.76c0.31-0.69,0.62-1.13,1-1.37c0.56-0.44,1.19-0.62,1.94-0.62c0.69,0,1.31,0.18,1.81,0.56
		s0.88,0.88,1.06,1.44H62.15z M70.58,16.38c0-1.75-0.5-3.18-1.56-4.25c-1.06-1.06-2.43-1.63-4.06-1.63c-1.56,0-2.87,0.56-3.93,1.63
		s-1.56,2.43-1.56,4.06c0,1.56,0.5,2.87,1.56,3.93c1.06,1.06,2.38,1.56,4.06,1.56c1.06,0,2-0.18,2.81-0.56
		c0.75-0.38,1.44-0.93,2-1.75l-2.25-1.06c-0.69,0.69-1.56,1.06-2.56,1.06c-0.81,0-1.5-0.25-2.06-0.69c-0.56-0.44-0.88-1.06-1-1.81
		h8.56v-0.5H70.58z"/>
	<path class="st0" d="M77.84,13.01c-0.81,0-1.56,0.31-2.06,0.88c-0.56,0.56-0.81,1.25-0.81,2.12c0,0.88,0.25,1.63,0.81,2.19
		c0.56,0.56,1.25,0.88,2.12,0.88c0.81,0,1.5-0.25,2.06-0.81c0.56-0.56,0.81-1.25,0.81-2.19c0-0.88-0.25-1.63-0.81-2.19
		C79.39,13.32,78.7,13.01,77.84,13.01 M80.58,10.82h2.63v9.12c0,1.81-0.38,3.13-1.06,3.93c-1,1.13-2.43,1.68-4.37,1.68
		c-1.06,0-1.94-0.13-2.63-0.38c-0.69-0.25-1.31-0.62-1.81-1.13c-0.5-0.5-0.88-1.13-1.06-1.81h2.94c0.25,0.31,0.62,0.5,1,0.69
		c0.44,0.13,0.88,0.25,1.44,0.25c0.69,0,1.31-0.13,1.75-0.31c0.44-0.25,0.75-0.5,0.93-0.88c0.18-0.38,0.25-0.93,0.25-1.81
		c-0.5,0.44-0.93,0.81-1.5,1c-0.5,0.18-1.13,0.31-1.75,0.31c-1.44,0-2.63-0.5-3.62-1.56c-1-1-1.5-2.31-1.5-3.88
		c0-1.68,0.5-3.06,1.56-4.06c0.93-0.93,2.06-1.37,3.38-1.37c0.62,0,1.19,0.13,1.75,0.31c0.56,0.25,1.06,0.62,1.63,1.13v-1.25h0.06
		V10.82z"/>
	<path class="st0" d="M85.33,10.82h2.31v1.31c0.25-0.5,0.56-0.93,1-1.19c0.44-0.26,0.88-0.44,1.37-0.44c0.38,0,0.69,0.06,1.06,0.25
		l-0.81,2.31c-0.31-0.18-0.56-0.25-0.75-0.25c-0.44,0-0.75,0.25-1.06,0.75c-0.31,0.5-0.44,1.5-0.44,3v0.5v4.31h-2.61V10.81h-0.06
		V10.82z"/>
	<path class="st0" d="M93.39,6.45c0.44,0,0.88,0.18,1.19,0.5c0.31,0.31,0.5,0.75,0.5,1.25s-0.18,0.88-0.5,1.19
		c-0.31,0.31-0.75,0.5-1.19,0.5c-0.5,0-0.88-0.18-1.19-0.5c-0.31-0.31-0.5-0.75-0.5-1.25c0-0.44,0.18-0.88,0.5-1.19
		C92.52,6.57,92.95,6.45,93.39,6.45"/>
	<rect x="92.08" y="10.82" class="st0" width="2.69" height="10.62"/>
	<polygon class="st0" points="97.45,6.88 100.14,6.88 100.14,10.82 101.7,10.82 101.7,13.07 100.14,13.07 100.14,21.45 97.45,21.45 
		97.45,13.07 96.07,13.07 96.07,10.82 97.45,10.82 	"/>
	<path class="st0" d="M104.08,24.76c0.93,0.13,1.75,0.31,2.56,0.44l6.62-14.37h-2.75l-3.06,6.69l-2.75-6.69h-2.75l4.06,9.81
		L104.08,24.76z"/>
	<polygon class="st0" points="116.19,7.08 123.32,7.08 123.32,9.76 118.88,9.76 118.88,12.32 123.32,12.32 123.32,14.94 
		118.88,14.94 118.88,21.45 116.19,21.45 	"/>
	<path class="st0" d="M125.13,10.82h2.69v10.62h-2.69V10.82z M126.5,6.45c0.44,0,0.88,0.18,1.19,0.5c0.31,0.31,0.5,0.75,0.5,1.25
		s-0.18,0.88-0.5,1.19c-0.31,0.31-0.75,0.5-1.19,0.5c-0.5,0-0.88-0.18-1.19-0.5c-0.31-0.31-0.5-0.75-0.5-1.25s0.18-0.88,0.5-1.19
		C125.63,6.57,126.01,6.45,126.5,6.45"/>
	<path class="st0" d="M129.63,10.82h2.31v1.31c0.25-0.5,0.56-0.93,1-1.19c0.44-0.26,0.88-0.44,1.37-0.44c0.38,0,0.69,0.06,1.06,0.25
		l-0.81,2.31c-0.31-0.18-0.56-0.25-0.75-0.25c-0.44,0-0.75,0.25-1.06,0.75c-0.31,0.5-0.44,1.5-0.44,3v0.5v4.31h-2.63V10.81h-0.05
		V10.82z"/>
	<path class="st0" d="M143.13,12.26l-1.63,1.63c-0.69-0.69-1.25-1-1.81-1c-0.31,0-0.56,0.06-0.69,0.18
		c-0.18,0.13-0.25,0.31-0.25,0.5c0,0.13,0.06,0.25,0.18,0.38c0.12,0.13,0.38,0.31,0.81,0.5l1,0.5c1,0.5,1.75,1,2.12,1.56
		c0.38,0.5,0.56,1.13,0.56,1.88c0,0.93-0.38,1.75-1.06,2.38c-0.69,0.62-1.63,0.93-2.81,0.93c-1.56,0-2.81-0.62-3.69-1.81l1.63-1.81
		c0.31,0.38,0.69,0.69,1.13,0.88c0.44,0.25,0.81,0.31,1.13,0.31c0.38,0,0.62-0.06,0.88-0.25c0.18-0.18,0.31-0.38,0.31-0.56
		c0-0.44-0.38-0.81-1.19-1.19l-0.88-0.44c-1.68-0.88-2.56-1.94-2.56-3.25c0-0.81,0.31-1.56,1-2.12c0.62-0.62,1.5-0.88,2.5-0.88
		c0.69,0,1.31,0.13,1.94,0.44C142.19,11.26,142.69,11.7,143.13,12.26"/>
	<polygon class="st0" points="145.75,6.88 148.44,6.88 148.44,10.82 150,10.82 150,13.07 148.44,13.07 148.44,21.45 145.75,21.45 
		145.75,13.07 144.37,13.07 144.37,10.82 145.75,10.82 	"/>
</g>
</svg>
