<?xml version="1.0" encoding="utf-8"?>
<!-- Generator: Adobe Illustrator 23.0.0, SVG Export Plug-In . SVG Version: 6.00 Build 0)  -->
<svg version="1.1" id="Capa_1" xmlns="http://www.w3.org/2000/svg" xmlns:xlink="http://www.w3.org/1999/xlink" x="0px" y="0px"
	 viewBox="0 0 56.7 56" style="enable-background:new 0 0 56.7 56;" xml:space="preserve">
<style type="text/css">
	.st0{fill:#005F27;}
</style>
<g>
	<path class="st0" d="M32.2,43.6c-9.4-6.9-12.8-14.2-13.2-20.2c-0.7-9.1,9.6-8,12.2-7.6c0.2,0,0.2-0.2,0.1-0.3
		c-2.7-1.9-8.1-3.5-13-0.3c-5.2,3.4-5,8.3-4.9,9.8c0.8,10.2,10.9,18.9,17,22c14.2,7,21.5,2.3,23.6,0.5C51.6,49,43.4,51.7,32.2,43.6"
		/>
	<path class="st0" d="M40.6,24.3c0,0-3.6-13.4-19.2-12.7C13,11.9,6,17.7,5,28.5C4.9,29,4.4,35.7,7.2,43.1c0.1,0.2-0.2,0.3-0.3,0.1
		c-2.2-4.2-6.1-13.9-2.9-24C6,13,15.5,6.6,26.5,9.9c11.1,3.3,15.9,11,15.1,14c0,0-0.1,0.8-0.6,0.8C40.6,24.6,40.6,24.3,40.6,24.3"/>
	<path class="st0" d="M24.8,22.5c0.7,2.4,2.4,7.3,8,10.9c6.6,4.2,14.9,3.2,16.8-2c1.5-4,0.1-10.8-7.2-17.6c0,0,5.8,4.7,8.5,12.5
		c0,0,5.1,13.7-7.7,14.5l0,0c-0.2,0-7.3,1.1-16.2-7.3c-1.4-1.3-6.8-7.6-4.2-12.3c0,0,0.3-0.6,0.8-0.8c0.6-0.3,0.8,0.1,0.8,0.4
		C24.4,21,24.5,21.4,24.8,22.5"/>
	<path class="st0" d="M34,29.9c-0.1,0-0.2,0.1-0.1,0.2c0.7,0.8,2.9,3,6.9,2.9c4.9-0.1,6.9-4.3,5.7-9.2c-0.7-2.5-4.2-9.8-15.3-15.3
		C29.4,7.7,18.7,3,5.8,6.7c0,0,12-4,25.1,2.5c1.5,0.8,10.9,6.2,12.6,13.9C44.1,25.9,44.2,31.6,34,29.9"/>
</g>
</svg>
