<?xml version="1.0" encoding="utf-8"?>
<!-- Generator: Adobe Illustrator 28.1.0, SVG Export Plug-In . SVG Version: 6.00 Build 0)  -->
<svg version="1.1" id="Capa_1" xmlns="http://www.w3.org/2000/svg" xmlns:xlink="http://www.w3.org/1999/xlink" x="0px" y="0px"
	 viewBox="0 0 14 14" style="enable-background:new 0 0 14 14;" xml:space="preserve">
<style type="text/css">
	.st0{fill:#FFFFFF;}
</style>
<g>
	<path class="st0" d="M1.2,4.99h2.49v8H1.2V4.99z M2.44,1.01c0.8,0,1.44,0.65,1.44,1.44c0,0.8-0.65,1.44-1.44,1.44
		C1.65,3.9,1,3.25,1,2.45C1,1.66,1.65,1.01,2.44,1.01"/>
	<path class="st0" d="M5.25,4.99h2.38v1.09h0.03C8,5.45,8.81,4.79,10.02,4.79C12.54,4.79,13,6.45,13,8.6v4.39h-2.48V9.1
		c0-0.93-0.02-2.12-1.29-2.12c-1.29,0-1.49,1.01-1.49,2.05v3.96H5.25V4.99z"/>
</g>
</svg>
